# xmcd
#
# Track frame offsets: 
#        150
#        8683
#        33917
#        62580
#        90251
#        114566
#        150210
#        194218
#        226427
#        256483
#        283303
#        316617
#
# Disc length: 4358 seconds
#
# Revision: 0
# Processed by: cddbd v1.5.2PL0 Copyright (c) Steve Scherf et al.
# Submitted via: ExactAudioCopyFreeDBPlugin 1.0
#
DISCID=9311040c
DTITLE=Blues Corporation - Live
DYEAR=2001
DGENRE=Blues
TTITLE0=Boneman
TTITLE1=Intro-Keep A lookout For The Blues
TTITLE2=Chant
TTITLE3=Resting In The Blues
TTITLE4=Let Sleeping Dogs Lie
TTITLE5=Statesboro Blues
TTITLE6=Thrill Is Gone
TTITLE7=All The Kings Horses
TTITLE8=Sea Of Blues
TTITLE9=Heartbreak Hotel
TTITLE10=It's Tight Like That
TTITLE11=Thank You
EXTD=
EXTT0=
EXTT1=
EXTT2=
EXTT3=
EXTT4=
EXTT5=
EXTT6=
EXTT7=
EXTT8=
EXTT9=
EXTT10=
EXTT11=
PLAYORDER=
